<?xml version="1.0" encoding="UTF-8"?>
<svg width="85px" height="139px" viewBox="0 0 85 139" version="1.1" xmlns="http://www.w3.org/2000/svg" xmlns:xlink="http://www.w3.org/1999/xlink">
    <title>nadaimporta</title>
    <defs>
        <polygon id="path-1" points="0.000167164179 0.2912 84.0434627 0.2912 84.0434627 137.910448 0.000167164179 137.910448"></polygon>
    </defs>
    <g id="Page-1" stroke="none" stroke-width="1" fill="none" fill-rule="evenodd">
        <g id="brand/brand-03" transform="translate(-678.000000, -443.000000)">
            <g id="Group-10" transform="translate(678.000000, 443.000000)">
                <path d="M21.9108776,60.785409 L21.9108776,54.4515582 L62.1339224,84.3171104 L62.1339224,91.0086925 L21.9108776,60.785409 Z M68.076609,47.0495284 L62.1339224,47.0495284 L62.1339224,76.9167522 L21.9108776,47.0495284 L15.968191,47.0495284 L15.968191,94.7097075 L21.9108776,94.7097075 L21.9108776,64.4864239 L62.1339224,94.7097075 L68.076609,94.7097075 L68.076609,47.0495284 Z" id="Fill-1" fill="#000000"></path>
                <g id="Group-9" transform="translate(0.000000, 0.544788)">
                    <g id="Group-4">
                        <mask id="mask-2" fill="white">
                            <use xlink:href="#path-1"></use>
                        </mask>
                        <g id="Clip-3"></g>
                        <path d="M42.0218985,6.23388657 C22.1276896,6.23388657 5.94285373,22.420394 5.94285373,42.3129313 L5.94285373,95.8890507 C5.94285373,115.781588 22.1276896,131.968096 42.0218985,131.968096 C61.9161075,131.968096 78.1009433,115.781588 78.1009433,95.8890507 L78.1009433,42.3129313 C78.1009433,22.420394 61.9161075,6.23388657 42.0218985,6.23388657 M42.0218985,137.910782 C18.8512716,137.910782 0.000167164179,119.059678 0.000167164179,95.8890507 L0.000167164179,42.3129313 C0.000167164179,19.1423045 18.8512716,0.2912 42.0218985,0.2912 C65.1925254,0.2912 84.0436299,19.1423045 84.0436299,42.3129313 L84.0436299,95.8890507 C84.0436299,119.059678 65.1925254,137.910782 42.0218985,137.910782" id="Fill-2" fill="#000000" mask="url(#mask-2)"></path>
                    </g>
                    <polygon id="Fill-5" fill="#000000" points="49.9459821 83.170197 44.0032955 78.7570627 44.0032955 101.098555 38.5554149 101.098555 38.5554149 74.7116896 35.5849075 72.5051224 35.5849075 101.098555 29.8344597 101.098555 29.8344597 107.041242 56.1912358 107.041242 56.1912358 101.098555 49.9459821 101.098555"></polygon>
                    <polygon id="Fill-7" fill="#000000" points="29.834794 31.1599045 29.834794 37.1042627 35.5835701 37.1042627 35.5835701 46.7529791 38.5557493 48.9578746 38.5557493 37.1042627 44.0036299 37.1042627 44.0036299 53.0032478 49.9463164 57.4163821 49.9463164 37.1042627 56.1915701 37.1042627 56.1915701 31.1599045"></polygon>
                </g>
            </g>
        </g>
    </g>
</svg>